<?xml version="1.0" encoding="UTF-8"?>
<svg id="Layer_1" data-name="Layer 1" xmlns="http://www.w3.org/2000/svg" xmlns:xlink="http://www.w3.org/1999/xlink" viewBox="0 0 2217.06 722.08">
  <defs>
    <style>
      .cls-1 {
        fill: url(#linear-gradient-8);
      }

      .cls-2 {
        fill: url(#linear-gradient-7);
      }

      .cls-3 {
        fill: url(#linear-gradient-9);
      }

      .cls-4 {
        fill: url(#linear-gradient);
      }

      .cls-5 {
        stroke: url(#linear-gradient-2);
      }

      .cls-5, .cls-6, .cls-7, .cls-8 {
        stroke-width: 3px;
      }

      .cls-5, .cls-6, .cls-7, .cls-8, .cls-9 {
        fill: none;
        stroke-miterlimit: 10;
      }

      .cls-6 {
        stroke: url(#linear-gradient-4);
      }

      .cls-7 {
        stroke: url(#linear-gradient-3);
      }

      .cls-8 {
        stroke: url(#linear-gradient-5);
      }

      .cls-10 {
        fill: #fff;
      }

      .cls-11 {
        fill: url(#linear-gradient-10);
      }

      .cls-9 {
        stroke: url(#linear-gradient-6);
        stroke-width: 2.36px;
      }
    </style>
    <linearGradient id="linear-gradient" x1="-10725.25" y1="3825.2" x2="-11244.61" y2="3825.2" gradientTransform="translate(-9117.8213 -3411.5756) scale(-1 1)" gradientUnits="userSpaceOnUse">
      <stop offset="0" stop-color="#912f47"/>
      <stop offset="1" stop-color="#27346d"/>
    </linearGradient>
    <linearGradient id="linear-gradient-2" x1="3901.99" y1="-645.73" x2="4000.81" y2="-645.73" gradientTransform="translate(-2201.2155 3405.7688) rotate(-40.4198)" gradientUnits="userSpaceOnUse">
      <stop offset="0" stop-color="#8c1737"/>
      <stop offset="1" stop-color="#2a3675"/>
    </linearGradient>
    <linearGradient id="linear-gradient-3" x1="3859.03" y1="-656.26" x2="4043.97" y2="-656.26" gradientTransform="translate(-3569.8907 1000.3211)" xlink:href="#linear-gradient-2"/>
    <linearGradient id="linear-gradient-4" x1="3824.86" y1="-654.71" x2="4078.37" y2="-654.71" xlink:href="#linear-gradient-2"/>
    <linearGradient id="linear-gradient-5" x1="3743.4" y1="-666.42" x2="4125.09" y2="-666.42" xlink:href="#linear-gradient-2"/>
    <linearGradient id="linear-gradient-6" x1="-2214.89" y1="2334.84" x2="-2226.05" y2="2128.06" gradientTransform="translate(15343.888 -16769.9414) rotate(-40.2593) scale(10.1513 1.5272)" gradientUnits="userSpaceOnUse">
      <stop offset="0" stop-color="#231f20" stop-opacity="0"/>
      <stop offset="0" stop-color="#271e20" stop-opacity=".04"/>
      <stop offset=".05" stop-color="#451c27" stop-opacity=".33"/>
      <stop offset=".1" stop-color="#5f1a2d" stop-opacity=".57"/>
      <stop offset=".15" stop-color="#721831" stop-opacity=".76"/>
      <stop offset=".19" stop-color="#801734" stop-opacity=".89"/>
      <stop offset=".25" stop-color="#891736" stop-opacity=".97"/>
      <stop offset=".3" stop-color="#8c1737"/>
      <stop offset=".32" stop-color="#86183a"/>
      <stop offset=".54" stop-color="#54285a"/>
      <stop offset=".71" stop-color="#35326d"/>
      <stop offset=".8" stop-color="#2a3675"/>
      <stop offset=".84" stop-color="#293572" stop-opacity=".97"/>
      <stop offset=".87" stop-color="#29336a" stop-opacity=".87"/>
      <stop offset=".91" stop-color="#272f5c" stop-opacity=".71"/>
      <stop offset=".95" stop-color="#262a48" stop-opacity=".48"/>
      <stop offset=".98" stop-color="#242330" stop-opacity=".19"/>
      <stop offset="1" stop-color="#231f20" stop-opacity="0"/>
    </linearGradient>
    <linearGradient id="linear-gradient-7" x1="380.32" y1="219.91" x2="396.4" y2="219.91" gradientUnits="userSpaceOnUse">
      <stop offset="0" stop-color="#2a3675"/>
      <stop offset=".18" stop-color="#2f3471"/>
      <stop offset=".39" stop-color="#3e2f68"/>
      <stop offset=".63" stop-color="#562758"/>
      <stop offset=".88" stop-color="#791c42"/>
      <stop offset="1" stop-color="#8c1737"/>
    </linearGradient>
    <linearGradient id="linear-gradient-8" x1="426.25" y1="267.47" x2="436.27" y2="267.47" gradientTransform="matrix(1,0,0,1,0,0)" xlink:href="#linear-gradient-2"/>
    <linearGradient id="linear-gradient-9" x1="412.46" y1="391.36" x2="422.48" y2="391.36" gradientTransform="matrix(1,0,0,1,0,0)" xlink:href="#linear-gradient-2"/>
    <linearGradient id="linear-gradient-10" x1="251.96" y1="188.92" x2="261.99" y2="188.92" gradientTransform="matrix(1,0,0,1,0,0)" xlink:href="#linear-gradient-2"/>
  </defs>
  <g id="Layer_2" data-name="Layer 2">
    <g id="Layer_1-2" data-name="Layer 1-2">
      <rect class="cls-4" x="1607.43" y="361.56" width="519.36" height="104.13"/>
      <path class="cls-10" d="M1216.11,394.24l-.16,3.06c-2.48-.51-5-.8-7.53-.86-6.07,0-8.49,2.3-8.49,8.39v16.53c0,5.73,2.43,8.28,8.56,8.28,2.51-.06,5.01-.36,7.46-.91l.16,3.18c-2.52.52-5.08.8-7.65.86-8.67-.07-11.85-3.94-11.85-11.69v-15.97c0-8.04,3.18-11.68,11.85-11.68,2.57.07,5.13.34,7.65.81Z"/>
      <path class="cls-10" d="M1254.89,397.19h-15.51v14.07h14.35v3.06h-14.35v14.7h15.51v3.06h-18.87v-37.97h18.87v3.08Z"/>
      <path class="cls-10" d="M1278.69,398.16v33.85h-3.29v-37.9h5.28l15.62,33.68v-33.68h3.31v37.9h-5.05l-15.86-33.85Z"/>
      <path class="cls-10" d="M1344.09,397.19h-11.4v34.82h-3.36v-34.82h-11.38v-3.08h26.13v3.08Z"/>
      <path class="cls-10" d="M1381.27,397.19h-15.51v14.07h14.33v3.06h-14.33v14.7h15.51v3.06h-18.87v-37.97h18.87v3.08Z"/>
      <path class="cls-10" d="M1424.27,403.61v1.39c.26,4.52-2.67,8.62-7.03,9.83l9.76,17.18h-3.76l-9.32-16.5c-2.93.26-5.87.26-8.79,0v16.55h-3.36v-38.36c3.41-.12,6.47-.28,9.65-.28,8.97,0,12.86,3.87,12.86,10.18ZM1405.11,396.58v15.99c2.53.18,4.68.3,6.37.3,6.59,0,9.43-2.78,9.43-7.98v-1.11c0-4.98-2.9-7.46-9.6-7.46-1.28.07-4.57.18-6.19.23v.04Z"/>
      <path class="cls-10" d="M1487.52,397.19h-15.49v14.07h11.73v3.06h-11.73v17.76h-3.36v-37.97h18.85v3.08Z"/>
      <path class="cls-10" d="M1529.08,405.86v14.4c0,8.04-3.69,12.43-12.2,12.43s-12.2-4.4-12.2-12.43v-14.4c0-7.81,3.41-12.43,12.2-12.43s12.2,4.63,12.2,12.43ZM1507.98,405.28v15.51c0,5.96,2.95,8.9,8.79,8.9s8.79-2.94,8.79-8.9v-15.46c0-5.89-2.9-8.9-8.79-8.9s-8.74,2.95-8.74,8.85h-.05Z"/>
      <path class="cls-10" d="M1572.4,403.61v1.39c.25,4.55-2.72,8.65-7.12,9.83l9.78,17.18h-3.76l-9.32-16.5c-2.93.26-5.87.26-8.79,0v16.55h-3.36v-38.36c3.41-.12,6.47-.28,9.65-.28,9.04,0,12.93,3.87,12.93,10.18ZM1553.25,396.58v15.99c2.53.18,4.68.3,6.35.3,6.61,0,9.44-2.78,9.44-7.98v-1.11c0-4.98-2.9-7.46-9.6-7.46-1.28.07-4.57.18-6.19.23v.04Z"/>
      <path class="cls-10" d="M1668.52,432.01h-7.4l-1.99-7.93h-12.08l-1.99,7.93h-7.03l11.22-37.9h8.12l11.15,37.9ZM1648.41,418.19h9.3l-4.63-18.29-4.68,18.29Z"/>
      <path class="cls-10" d="M1701.59,394.34l-.11,6.31c-2.81-.55-5.65-.88-8.51-.98-3.64,0-4.98,1.44-4.98,4.04v1.21c0,2.09.63,2.9,3.64,3.89l5.1,1.67c5.38,1.76,7.4,4.52,7.4,10.36v1.09c0,7.03-3.52,10.76-13.19,10.76-3-.14-5.99-.55-8.92-1.21v-6.42c2.84.73,5.74,1.16,8.67,1.28,4.85,0,6.47-1.51,6.47-4.17v-1.51c0-2.02-.81-3.06-3.06-3.82l-5.61-1.85c-5.61-1.85-7.53-4.34-7.53-10.31v-.58c0-6.88,3.52-10.69,11.75-10.69,2.97.09,5.94.39,8.86.91Z"/>
      <path class="cls-10" d="M1745.06,400.48h-10.41v31.53h-6.93v-31.53h-10.38v-6.37h27.72v6.37Z"/>
      <path class="cls-10" d="M1785.46,404.07v1.46c.05,4.19-2.51,7.97-6.42,9.48l9.37,17.08h-7.63l-8.21-15.28c-1.49.12-2.98.12-4.47,0v15.34h-6.96v-38.37c3.34-.11,7.86-.33,10.55-.33,9.73,0,13.77,4.17,13.77,10.64ZM1768.05,399.62v11.04c1.25.15,2.51.23,3.76.23,4.75,0,6.7-2.08,6.7-5.49v-.93c0-3.31-1.95-4.98-6.75-4.98-.93,0-2.55.07-3.71.12Z"/>
      <path class="cls-10" d="M1828.52,406.22v13.7c0,7.98-3.87,12.79-13.07,12.79s-13.03-4.8-13.03-12.79v-13.7c0-8.11,3.94-12.79,13.03-12.79s13.07,4.68,13.07,12.79ZM1809.32,405.69v14.7c0,3.99,2.08,6.07,6.14,6.07s6.12-2.08,6.12-6.07v-14.63c0-3.94-2.08-6.08-6.12-6.08s-6.14,2.08-6.14,6.01Z"/>
      <path class="cls-10" d="M1870.73,404.47v1.28c0,7.33-4.34,11.78-13.14,11.78-1.46-.01-2.91-.14-4.34-.39v14.86h-6.95v-38.25c2.9-.11,6.67-.28,10.55-.33,9.53-.07,13.88,4.27,13.88,11.04ZM1853.15,399.57v11.5c1.28.2,2.57.31,3.87.35,4.52,0,6.72-2.02,6.72-5.91v-.86c0-3.36-2.02-5.28-6.95-5.28-1.67.07-2.6.12-3.59.19h-.05Z"/>
      <path class="cls-10" d="M1912.52,432.01h-6.88v-16.37h-11.92v16.37h-6.95v-37.9h6.95v15.28h11.92v-15.28h6.88v37.9Z"/>
      <path class="cls-10" d="M1945.63,418.93v13.08h-7.03v-13.08l-10.94-24.81h7.83l6.79,18.11,6.72-18.11h7.63l-10.99,24.81Z"/>
      <path class="cls-10" d="M1990.2,394.34l-.11,6.31c-2.81-.55-5.65-.88-8.51-.98-3.64,0-4.98,1.44-4.98,4.04v1.21c0,2.09.65,2.9,3.66,3.89l5.08,1.67c5.38,1.76,7.4,4.52,7.4,10.36v1.09c0,7.03-3.52,10.76-13.19,10.76-3-.14-5.99-.55-8.92-1.21v-6.42c2.84.72,5.74,1.15,8.67,1.28,4.87,0,6.49-1.51,6.49-4.17v-1.51c0-2.02-.81-3.06-3.08-3.82l-5.61-1.85c-5.61-1.85-7.53-4.34-7.53-10.31v-.58c0-6.88,3.52-10.69,11.75-10.69,2.97.09,5.94.39,8.86.91Z"/>
      <path class="cls-10" d="M2016.14,432.01h-7.03v-37.9h7.03v37.9Z"/>
      <path class="cls-10" d="M2055.27,394.41l-.12,6.19c-2.59-.53-5.22-.85-7.86-.93-4.92,0-6.54,1.57-6.54,6.24v14.24c0,4.63,1.76,6.19,6.54,6.19,2.65-.09,5.28-.44,7.86-1.06l.12,6.37c-2.86.59-5.76.93-8.67,1.04-9.5,0-12.79-4.04-12.79-12.08v-15.09c0-8.16,3.41-12.08,12.79-12.08,2.91.11,5.81.43,8.67.97Z"/>
      <path class="cls-10" d="M2091.51,394.34l-.12,6.31c-2.81-.55-5.65-.88-8.51-.98-3.64,0-4.96,1.44-4.96,4.04v1.21c0,2.09.63,2.9,3.64,3.89l5.08,1.67c5.38,1.76,7.4,4.52,7.4,10.36v1.09c0,7.03-3.52,10.76-13.19,10.76-3-.14-5.97-.55-8.9-1.21v-6.42c2.84.72,5.74,1.15,8.67,1.28,4.87,0,6.49-1.51,6.49-4.17v-1.51c0-2.02-.81-3.06-3.06-3.82l-5.63-1.85c-5.61-1.85-7.51-4.34-7.51-10.31v-.58c0-6.88,3.52-10.69,11.75-10.69,2.97.09,5.92.39,8.85.91Z"/>
      <path class="cls-10" d="M1607.48,493.46h2.73v10.31h12.49v-10.31h2.73v23.44h-2.73v-10.71h-12.49v10.71h-2.73v-23.44Z"/>
      <path class="cls-10" d="M1640.54,509.29l-2.81,7.61h-2.76l8.79-23.5h2.74l8.79,23.5h-2.74l-2.81-7.61h-9.2ZM1645.15,496.4l-3.76,10.55h7.54l-3.78-10.55Z"/>
      <path class="cls-10" d="M1664.92,493.46h5.96c4.8,0,7.33,2.41,7.33,6.51.17,2.75-1.5,5.29-4.1,6.21l5.84,10.78h-3.02l-5.28-10.2h-3.99v10.2h-2.71l-.04-23.5ZM1670.88,504.36c2.13.33,4.13-1.13,4.45-3.26.06-.36.06-.73.01-1.1,0-2.48-1.3-4.13-4.63-4.13h-3.1v8.49h3.25Z"/>
      <path class="cls-10" d="M1695.69,516.9l-8.93-23.44h2.99l7.39,20.28,7.42-20.28h2.97l-8.92,23.5-2.92-.05Z"/>
      <path class="cls-10" d="M1717.98,509.29l-2.81,7.61h-2.76l8.79-23.5h2.76l8.79,23.5h-2.76l-2.81-7.61h-9.2ZM1722.57,496.4l-3.75,10.55h7.54l-3.8-10.55Z"/>
      <path class="cls-10" d="M1742.33,493.46h5.98c4.8,0,7.32,2.41,7.32,6.51.18,2.75-1.49,5.29-4.1,6.21l5.84,10.78h-3.01l-5.28-10.2h-3.99v10.2h-2.73l-.04-23.5ZM1748.31,504.36c2.14.32,4.14-1.16,4.45-3.3.05-.35.06-.71.01-1.06,0-2.48-1.32-4.13-4.64-4.13h-3.08v8.49h3.25Z"/>
      <path class="cls-10" d="M1767.2,493.46h4.84c8.02,0,12.59,4.4,12.59,11.75,0,7.79-4.73,11.75-12.59,11.75h-4.84v-23.5ZM1772.58,514.57c5.63,0,9.25-3.2,9.25-9.34s-3.62-9.3-9.25-9.3h-2.66v18.64h2.66Z"/>
      <path class="cls-10" d="M1823.72,514.72c-1.84,1.74-4.3,2.69-6.84,2.62-5.1,0-8.16-3.1-8.16-7.03.09-2.71,1.68-5.14,4.13-6.3-1.56-1.32-2.49-3.24-2.55-5.28,0-3.26,2.66-5.9,5.92-5.89.16,0,.32,0,.48.02,4.1,0,6.54,2.41,6.54,5.91,0,2.92-2.04,4.91-5.28,6.72l5.57,5.28c.86-1.62,1.25-3.45,1.11-5.28h2.55c.16,2.51-.46,5.01-1.76,7.16l2.46,2.44-1.92,1.76-2.27-2.13ZM1821.97,512.96l-7.35-7.03c-1.89.69-3.16,2.46-3.22,4.47,0,2.95,2.51,4.66,5.5,4.66,1.91-.05,3.73-.86,5.05-2.25l.02.16ZM1816.28,504.17c2.46-1.25,4.47-2.95,4.47-5.14s-1.77-3.96-3.96-3.96-3.96,1.77-3.96,3.96c-.02,2.02,1.65,3.53,3.43,4.98l.02.16Z"/>
      <path class="cls-10" d="M1853.52,511.17c.66,2.26,2.8,3.78,5.15,3.66,2.1.23,4-1.28,4.23-3.39.02-.17.03-.34.02-.52,0-5.87-11.01-4.36-11.01-11.94,0-3.36,2.55-6.01,6.72-6.01,2.95-.08,5.63,1.73,6.65,4.5l-2.29.93c-.73-1.79-2.47-2.96-4.4-2.95-1.93-.24-3.69,1.12-3.93,3.05-.02.16-.03.31-.03.47,0,5.28,11.03,4.26,11.03,11.78.03,3.61-2.88,6.57-6.49,6.6-.18,0-.36,0-.55-.02-3.35.17-6.38-1.96-7.35-5.17l2.23-.98Z"/>
      <path class="cls-10" d="M1888.09,511.7l8.46-18.24h3.52v23.44h-2.62v-19.57l-7.93,17.43h-2.69l-7.95-17.43v19.57h-2.62v-23.44h3.52l8.32,18.24Z"/>
      <path class="cls-10" d="M1911.81,493.46h2.73v23.44h-2.73v-23.44Z"/>
      <path class="cls-10" d="M1930.75,495.89h-6.35v-2.43h15.37v2.48h-6.3v21.1h-2.71l-.02-21.16Z"/>
      <path class="cls-10" d="M1950.01,493.46h2.71v10.31h12.5v-10.31h2.71v23.44h-2.71v-10.71h-12.5v10.71h-2.71v-23.44Z"/>
      <path class="cls-10" d="M1980.56,511.17c.65,2.27,2.78,3.78,5.14,3.66,2.1.23,4-1.28,4.23-3.39.02-.17.03-.34.02-.52,0-5.87-11.01-4.36-11.01-11.94,0-3.36,2.55-6.01,6.72-6.01,2.95-.08,5.63,1.73,6.65,4.5l-2.29.93c-.73-1.79-2.47-2.96-4.4-2.95-1.93-.24-3.69,1.12-3.93,3.05-.02.16-.03.31-.03.47,0,5.28,11.04,4.26,11.04,11.78.02,3.62-2.9,6.58-6.52,6.6-.2,0-.4,0-.6-.02-3.35.17-6.38-1.96-7.35-5.17l2.32-.98Z"/>
      <path class="cls-10" d="M2013.85,492.97c6.73-.11,12.27,5.26,12.38,11.99.11,6.73-5.26,12.27-11.99,12.38-6.73.11-12.27-5.26-12.38-11.99,0-.06,0-.13,0-.19-.18-6.55,5-12.01,11.55-12.18.15,0,.3,0,.44,0ZM2013.85,514.79c5.33.27,9.86-3.82,10.13-9.15.27-5.33-3.82-9.86-9.15-10.13-5.33-.27-9.86,3.82-10.13,9.15,0,.17-.01.33-.01.5-.26,5.05,3.62,9.36,8.68,9.63.16,0,.32.01.49.01Z"/>
      <path class="cls-10" d="M2036.26,493.46h2.74l12.96,19.2v-19.2h2.67v23.44h-2.67l-12.96-19.13v19.13h-2.73l-.02-23.44Z"/>
      <path class="cls-10" d="M2066.43,493.46h2.73v23.44h-2.73v-23.44Z"/>
      <path class="cls-10" d="M2084.28,509.29l-2.81,7.61h-2.76l8.79-23.5h2.76l8.79,23.5h-2.74l-2.8-7.61h-9.23ZM2088.89,496.4l-3.76,10.55h7.54l-3.78-10.55Z"/>
      <path class="cls-10" d="M2108.62,493.46h2.71l12.96,19.2v-19.2h2.64v23.44h-2.64l-12.96-19.13v19.13h-2.71v-23.44Z"/>
    </g>
  </g>
  <g>
    <g>
      <path class="cls-10" d="M657.72,289.94v2.14c0,12.85-7.14,20.2-22.24,20.2-3.47,0-6.73-.31-11.73-1.02v28.15h-5.92v-67.43c4.39-.31,9.89-.51,16.93-.61,15.71-.1,22.95,6.53,22.95,18.56ZM623.75,276.89v29.17c4.59.71,7.85,1.02,11.42,1.02,11.32,0,16.63-5.3,16.63-15.2v-1.63c0-9.08-5.2-13.67-17.24-13.67-4.49,0-8.26.2-10.81.31Z"/>
      <path class="cls-10" d="M685.77,334.11h27.44v5.3h-33.36v-66.81h5.92v61.51Z"/>
      <path class="cls-10" d="M778.69,339.42h-6.53l-5.1-16.73h-27.34l-5,16.73h-6.22l21.01-66.81h7.55l21.62,66.81ZM741.25,317.28h24.17l-12.24-39.17-11.93,39.17Z"/>
      <path class="cls-10" d="M804.49,279.74v59.67h-5.81v-66.81h9.28l27.54,59.37v-59.37h5.81v66.81h-8.88l-27.95-59.67Z"/>
      <path class="cls-10" d="M901.49,278.01h-27.34v24.79h25.3v5.3h-25.3v25.91h27.34v5.41h-33.25v-66.81h33.25v5.41Z"/>
      <path class="cls-10" d="M968.71,278.01h-20.1v61.41h-5.92v-61.41h-20.09v-5.41h46.11v5.41Z"/>
      <path class="cls-10" d="M1028.38,339.42h-6.53l-5.1-16.73h-27.34l-5,16.73h-6.22l21.01-66.81h7.55l21.62,66.81ZM990.95,317.28h24.17l-12.24-39.17-11.93,39.17Z"/>
      <path class="cls-10" d="M1088.05,289.33v2.45c0,8.37-4.28,14.89-12.55,17.34l17.24,30.3h-6.63l-16.42-29.07c-3.47.41-9.18.41-15.4-.1v29.17h-5.92v-67.53c6.02-.2,11.42-.51,17.04-.51,15.81,0,22.64,6.83,22.64,17.95ZM1054.29,276.89v28.26c4.49.31,8.26.51,11.22.51,11.63,0,16.63-4.9,16.63-14.08v-1.84c0-8.77-5.1-13.16-16.93-13.16-2.24,0-8.06.2-10.92.31Z"/>
      <path class="cls-10" d="M1130.99,316.47v22.95h-5.92v-22.95l-19.58-43.86h6.83l15.71,37.44,15.81-37.44h6.73l-19.58,43.86Z"/>
      <path class="cls-10" d="M1245.64,297.39v17.95c0,16.22-8.47,25.3-25.3,25.3-6.43,0-11.53-.2-17.24-.61v-68.14c4.49-.2,10.61-.51,17.24-.51,16.32,0,25.3,8.67,25.3,26.01ZM1209.02,276.89v57.94c4.79.41,8.26.61,11.32.61,12.04,0,19.38-6.83,19.38-19.48v-18.87c0-13.87-6.94-20.5-19.79-20.5-3.67,0-7.75.1-10.92.31Z"/>
      <path class="cls-10" d="M1304.8,278.01h-27.34v24.79h25.3v5.3h-25.3v25.91h27.34v5.41h-33.25v-66.81h33.25v5.41Z"/>
      <path class="cls-10" d="M1363.96,278.01h-27.34v24.79h20.71v5.3h-20.71v31.32h-5.92v-66.81h33.25v5.41Z"/>
      <path class="cls-10" d="M1420.57,278.01h-27.34v24.79h25.3v5.3h-25.3v25.91h27.34v5.41h-33.25v-66.81h33.25v5.41Z"/>
      <path class="cls-10" d="M1452.29,279.74v59.67h-5.81v-66.81h9.28l27.54,59.37v-59.37h5.81v66.81h-8.88l-27.95-59.67Z"/>
      <path class="cls-10" d="M1545.21,272.81l-.1,5.41c-4.18-.82-9.08-1.53-13.16-1.53-9.69,0-13.06,3.88-13.06,11.22v2.65c0,5.51,1.84,8.16,9.69,10.71l9.69,3.26c8.67,2.86,11.93,7.34,11.93,16.73v1.94c0,11.53-5.71,17.44-21.42,17.44-3.37,0-8.98-.71-13.97-1.84l.2-5.51c4.59,1.12,10,1.84,13.67,1.84,11.53,0,15.61-3.67,15.61-11.22v-3.47c0-5.51-2.24-8.47-8.47-10.51l-10.91-3.57c-8.57-2.96-11.93-7.04-11.93-16.22v-1.53c0-11.42,5.51-17.24,18.97-17.24,3.47,0,8.67.61,13.26,1.43Z"/>
      <path class="cls-10" d="M1606,278.01h-27.34v24.79h25.3v5.3h-25.3v25.91h27.34v5.41h-33.25v-66.81h33.25v5.41Z"/>
      <path class="cls-10" d="M1670.05,279.74v59.67h-5.81v-66.81h9.28l27.54,59.37v-59.37h5.81v66.81h-8.88l-27.95-59.67Z"/>
      <path class="cls-10" d="M1767.06,278.01h-27.34v24.79h25.3v5.3h-25.3v25.91h27.34v5.41h-33.25v-66.81h33.25v5.41Z"/>
      <path class="cls-10" d="M1834.27,278.01h-20.1v61.41h-5.92v-61.41h-20.09v-5.41h46.11v5.41Z"/>
      <path class="cls-10" d="M1914.34,339.42h-8.26l-15.61-60.08-15.5,60.08h-8.26l-16.22-66.81h6.43l14.18,60.29,15.2-60.29h8.36l15.3,60.29,14.18-60.29h6.32l-16.12,66.81Z"/>
      <path class="cls-10" d="M1992.99,293.31v25.4c0,14.18-6.53,21.93-21.52,21.93s-21.52-7.75-21.52-21.93v-25.4c0-13.77,6.02-21.93,21.52-21.93s21.52,8.16,21.52,21.93ZM1955.86,292.29v27.34c0,10.51,5.2,15.71,15.61,15.71s15.61-5.2,15.61-15.71v-27.24c0-10.4-5.1-15.71-15.61-15.71s-15.61,5.2-15.61,15.61Z"/>
      <path class="cls-10" d="M2059.08,289.33v2.45c0,8.37-4.28,14.89-12.55,17.34l17.24,30.3h-6.63l-16.42-29.07c-3.47.41-9.18.41-15.4-.1v29.17h-5.92v-67.53c6.02-.2,11.42-.51,17.04-.51,15.81,0,22.64,6.83,22.64,17.95ZM2025.32,276.89v28.26c4.49.31,8.26.51,11.22.51,11.63,0,16.63-4.9,16.63-14.08v-1.84c0-8.77-5.1-13.16-16.93-13.16-2.24,0-8.06.2-10.92.31Z"/>
      <path class="cls-10" d="M2096.92,304.94l31.42,34.48h-7.75l-30.09-33.36v33.36h-5.92v-66.81h5.92v32.23l28.46-32.23h6.83l-28.87,32.34Z"/>
    </g>
    <g>
      <circle class="cls-5" cx="388.36" cy="352.14" r="47.91"/>
      <ellipse class="cls-7" cx="381.61" cy="344.06" rx="90.97" ry="89.31" transform="translate(-132 329.55) rotate(-40.42)"/>
      <circle class="cls-6" cx="382.71" cy="345.17" r="125.25"/>
      <circle class="cls-8" cx="361.88" cy="347.51" r="189.35"/>
      <path class="cls-9" d="M35.91,457.03C285.48,245.68,533.08,127.83,588.94,193.79c55.86,65.97-101.17,290.77-350.74,502.12"/>
      <circle class="cls-2" cx="388.36" cy="219.91" r="8.04"/>
      <circle class="cls-1" cx="431.26" cy="267.47" r="5.01"/>
      <circle class="cls-3" cx="417.47" cy="391.36" r="5.01"/>
      <circle class="cls-11" cx="256.97" cy="188.92" r="5.01"/>
    </g>
  </g>
</svg>